<svg width="45" height="45" viewBox="0 0 45 45" fill="none" xmlns="http://www.w3.org/2000/svg">
<path d="M18.109 40.7595C17.6215 40.7595 17.1152 40.7033 16.6277 40.5345C15.2215 40.0845 14.284 38.997 13.4402 38.0595C12.9902 37.5533 12.559 37.0658 12.1277 36.747C11.6965 36.4283 11.0965 36.1658 10.459 35.8845C9.29648 35.3783 8.00273 34.8158 7.14023 33.6345C6.29648 32.472 6.14648 31.0658 6.03398 29.8095C5.95898 29.1158 5.90273 28.4595 5.73398 27.9345C5.56523 27.447 5.24648 26.9033 4.90898 26.322C4.27148 25.2345 3.52148 23.997 3.52148 22.497C3.52148 20.997 4.25273 19.7595 4.90898 18.672C5.24648 18.0908 5.58398 17.547 5.73398 17.0595C5.90273 16.5345 5.97773 15.8783 6.03398 15.1845C6.16523 13.947 6.29648 12.522 7.14023 11.3595C7.98398 10.1783 9.29648 9.61578 10.459 9.10953C11.0965 8.82828 11.6965 8.56578 12.1277 8.24703C12.559 7.92828 12.9902 7.44078 13.4402 6.93453C14.284 5.97828 15.2215 4.90953 16.6277 4.45953C17.9777 4.02828 19.3465 4.32828 20.5652 4.59078C21.9527 4.89078 23.0215 4.89078 24.409 4.59078C25.6277 4.32828 26.9965 4.02828 28.3465 4.45953C29.7527 4.90953 30.6902 5.99703 31.534 6.93453C31.984 7.44078 32.4152 7.92828 32.8465 8.24703C33.2777 8.56578 33.8777 8.82828 34.5152 9.10953C35.6777 9.61578 36.9715 10.1783 37.834 11.3595C38.6777 12.522 38.8277 13.9283 38.9402 15.1845C39.0152 15.8783 39.0715 16.5345 39.2402 17.0595C39.409 17.547 39.7277 18.0908 40.0652 18.672C40.7027 19.7595 41.4527 20.997 41.4527 22.497C41.4527 23.997 40.7215 25.2345 40.0652 26.322C39.7277 26.9033 39.3902 27.447 39.2402 27.9345C39.0715 28.4595 38.9965 29.1158 38.9402 29.8095C38.809 31.047 38.6777 32.472 37.834 33.6345C36.9902 34.8158 35.6777 35.3783 34.5152 35.8845C33.8777 36.1658 33.2777 36.4283 32.8465 36.747C32.4152 37.0658 31.984 37.5533 31.534 38.0595C30.6902 39.0158 29.7527 40.0845 28.3465 40.5345C27.0152 40.9658 25.6277 40.6658 24.409 40.4033C23.0215 40.1033 21.9527 40.1033 20.5652 40.4033C19.7965 40.572 18.9715 40.7595 18.109 40.7595ZM18.109 7.06578C17.884 7.06578 17.6777 7.08453 17.4902 7.15953C16.8152 7.38453 16.2152 8.07828 15.559 8.82828C15.034 9.42828 14.4715 10.0658 13.7965 10.5533C13.1027 11.0595 12.334 11.397 11.584 11.7158C10.684 12.1095 9.82148 12.4845 9.42773 13.0283C9.03398 13.572 8.94023 14.4908 8.84648 15.4658C8.77148 16.272 8.67773 17.1158 8.41523 17.9408C8.15273 18.7283 7.74023 19.4408 7.32773 20.1158C6.82148 20.9783 6.33398 21.7845 6.33398 22.5158C6.33398 23.247 6.82148 24.0533 7.32773 24.9158C7.74023 25.6095 8.15273 26.3033 8.41523 27.0908C8.67773 27.9158 8.77148 28.7595 8.84648 29.5658C8.94023 30.5408 9.03398 31.4595 9.42773 32.0033C9.84023 32.5658 10.684 32.922 11.584 33.3158C12.334 33.6345 13.1027 33.972 13.7965 34.4783C14.4715 34.9658 15.034 35.6033 15.559 36.2033C16.2152 36.9533 16.834 37.647 17.4902 37.872C18.109 38.0783 19.009 37.872 19.9465 37.6658C20.7527 37.4783 21.5965 37.3095 22.4777 37.3095C23.359 37.3095 24.2027 37.497 25.009 37.6658C25.9652 37.872 26.8465 38.0783 27.4652 37.872C28.1402 37.647 28.7402 36.9533 29.3965 36.2033C29.9215 35.6033 30.484 34.9658 31.159 34.4783C31.8527 33.972 32.6215 33.6345 33.3715 33.3158C34.2715 32.922 35.134 32.547 35.5277 32.0033C35.9215 31.4595 36.0152 30.5408 36.109 29.5658C36.184 28.7595 36.2777 27.9158 36.5402 27.0908C36.8027 26.3033 37.2152 25.5908 37.6277 24.9158C38.134 24.0533 38.6215 23.247 38.6215 22.5158C38.6215 21.7845 38.134 20.9783 37.6277 20.1158C37.2152 19.422 36.8027 18.7283 36.5402 17.9408C36.2777 17.1158 36.184 16.272 36.109 15.4658C36.0152 14.4908 35.9215 13.572 35.5277 13.0283C35.1152 12.4658 34.2715 12.1095 33.3715 11.7158C32.6215 11.397 31.8527 11.0595 31.159 10.5533C30.484 10.0658 29.9215 9.42828 29.3965 8.82828C28.7402 8.07828 28.1215 7.38453 27.4652 7.15953C26.8465 6.97203 25.9465 7.15953 25.009 7.36578C24.2027 7.55328 23.359 7.72203 22.4777 7.72203C21.5965 7.72203 20.7527 7.53453 19.9465 7.36578C19.2715 7.21578 18.634 7.08453 18.109 7.08453V7.06578Z" fill="#576D2C"/>
<path d="M20.6262 27.6516C20.2699 27.6516 19.9137 27.5203 19.6324 27.2391L15.8824 23.4891C15.3387 22.9453 15.3387 22.0453 15.8824 21.5016C16.4262 20.9578 17.3262 20.9578 17.8699 21.5016L20.6262 24.2578L27.1324 17.7516C27.6762 17.2078 28.5762 17.2078 29.1199 17.7516C29.6637 18.2953 29.6637 19.1953 29.1199 19.7391L21.6199 27.2391C21.3387 27.5203 20.9824 27.6516 20.6262 27.6516Z" fill="black"/>
</svg>
